<?xml version="1.0" encoding="UTF-8"?>
<svg xmlns="http://www.w3.org/2000/svg" viewBox="0 0 2232.98 3723.22">
  <defs>
    <style>
      .cls-1 {
        fill: none;
        stroke: #f7931e;
        stroke-miterlimit: 10;
        stroke-width: 27px;
      }
    </style>
  </defs>
  <g id="Capa_3" data-name="Capa 3">
    <path class="cls-1" d="M568.49,76.64c-1.21,37.74-1.97,75.54-3.15,113.28-2.01,76.77-10.39,160.36-73.88,209.8-19.96,16.2-43.3,28.02-67.39,37.17-94.17,34.07-203.21,37.14-286.43,97.31-54.74,37.92-94.71,97.83-106.01,164.04-26.56,144.94,79.57,284.63,216.47,321.41,55.49,16.83,114.05,22.46,171.8,26.09,123.21,8.02,246.83,1.09,369.06,19.18,81.75,12.84,166.82,37.14,230.06,93,83.84,70.5,106.4,200.42,48.47,293.99-47.19,78.54-140.4,111.07-226.84,123.28-162.32,23.77-328.29,10.7-490.64,27.89-47.09,5.1-94.58,12.7-139.51,27.77-234.22,73.81-223.67,345.54-14.63,444.52,83.43,37.66,178.52,40.76,268.82,45.23,104.82,4.26,206.5,3.49,310.2,10.41,93.57,5.88,194.22,25.92,257.23,101.97,97.83,114.59,59.2,294.37-76.68,358.05-43.33,21.1-91.56,29.34-139.54,33.79-46.2,4.21-92.78,5.36-139.15,6.63-90.47,2.37-180.94,3.96-271.27,10.25-57.6,4.32-116.23,10.04-171.47,27.32-276.38,81.73-252.76,472.67,33.03,517.78,44.78,8.32,90.89,11.12,136.43,14.02,88.65,5.51,176.49,9.47,263.63,24.65,233.97,37.92,335.35,177.94,431.17,382.09"/>
  </g>
  <g id="Capa_4" data-name="Capa 4">
    <path class="cls-1" d="M611.82,76.64c-1.21,37.74-1.97,75.54-3.15,113.28-2.01,76.77-10.39,160.36-73.88,209.8-19.96,16.2-43.3,28.02-67.39,37.17-94.17,34.07-203.21,37.14-286.43,97.31-54.74,37.92-94.71,97.83-106.01,164.04-26.56,144.94,79.57,284.63,216.47,321.41,55.49,16.83,114.05,22.46,171.8,26.09,123.21,8.02,246.83,1.09,369.06,19.18,81.75,12.84,166.82,37.14,230.06,93,83.84,70.5,106.4,200.42,48.47,293.99-47.19,78.54-140.4,111.07-226.84,123.28-162.32,23.77-328.29,10.7-490.64,27.89-47.09,5.1-94.58,12.7-139.51,27.77-234.22,73.81-223.67,345.54-14.63,444.52,83.43,37.66,178.52,40.76,268.82,45.23,104.82,4.26,206.5,3.49,310.2,10.41,93.57,5.88,194.22,25.92,257.23,101.97,97.83,114.59,59.2,294.37-76.68,358.05-43.33,21.1-91.56,29.34-139.54,33.79-46.2,4.21-92.78,5.36-139.15,6.63-90.47,2.37-180.94,3.96-271.27,10.25-57.6,4.31-116.23,10.04-171.47,27.32-276.38,81.73-252.76,472.67,33.03,517.78,44.78,8.32,90.89,11.12,136.43,14.02,193.77,12.32,221.13,13.37,263.63,24.65,87.95,23.35,148.03,66.38,177.36,87.79,123.66,90.29,180.24,208.99,204.17,270.83"/>
  </g>
</svg>